<?xml version="1.0" encoding="UTF-8" standalone="no"?>
<!-- Generator: Adobe Illustrator 15.0.2, SVG Export Plug-In . SVG Version: 6.00 Build 0)  -->
<svg xmlns:inkscape="http://www.inkscape.org/namespaces/inkscape" xmlns:rdf="http://www.w3.org/1999/02/22-rdf-syntax-ns#" xmlns="http://www.w3.org/2000/svg" xmlns:sodipodi="http://sodipodi.sourceforge.net/DTD/sodipodi-0.dtd" xmlns:ns1="http://sozi.baierouge.fr" xmlns:cc="http://creativecommons.org/ns#" xmlns:xlink="http://www.w3.org/1999/xlink" xmlns:dc="http://purl.org/dc/elements/1.1/" id="svg171" enable-background="new 0 0 595.279 841.891" xml:space="preserve" viewBox="0 0 595.279 841.891" version="1.1" y="0px" x="0px">
<path id="rect959" d="m132.8 664.5h11.311c5.057 0 9.156 4.1 9.156 9.156v65.62c0 5.058-4.1 9.156-9.156 9.156h-11.311c-5.057 0-9.156-4.099-9.156-9.156v-65.62c0.01-5.06 4.1-9.16 9.16-9.16z" fill="#60585A"/>
<path id="rect958" d="m447.44 653.84h11.311c5.057 0 9.156 4.1 9.156 9.156v65.621c0 5.057-4.1 9.156-9.156 9.156h-11.311c-5.058 0-9.156-4.1-9.156-9.156v-65.621c0-5.06 4.1-9.16 9.16-9.16z" fill="#60585A"/>
<g id="g786" fill="#4A00AD" transform="matrix(-1 0 0 -1 282.65 766.12)">
	<path id="path787" d="m-43.37 694.74c-5.837-0.343-11.878-0.414-17.669 0.362-3.812 0.759-12.237 4.018-8.165 9.254 5.595 5.377 15.498 4.553 22.569 3.95l0.548 6.393c-9.736 0.8-21.507 1.058-28.627-6.75-6.379-10.154 3.601-17.49 12.825-19.216 6.167-0.782 12.333-0.373 18.518-0.734l0.001 6.75z"/>
	<path id="path788" d="m-43.37 728.46c-5.837 0.342-11.878 0.414-17.669-0.363-3.812-0.759-12.237-4.018-8.165-9.254 5.595-5.377 15.498-4.553 22.569-3.95l0.548-6.393c-9.736-0.8-21.507-1.058-28.627 6.75-6.379 10.155 3.601 17.49 12.825 19.216 6.167 0.782 12.333 0.373 18.518 0.734l0.001-6.75z"/>
	<path id="path789" d="m-20.595 713.82c-2.202-0.21-4.466-0.119-6.673-0.131-1.868-0.006-8.14-0.962-9.303 1.064-0.41 1.444 0.288 3.097 1.502 3.904 2.941 1.512 6.912 0.742 10.068 0.59 3.86-0.185 9.098-0.611 10.277 4.087 0.365 3.836-2.024 7.516-5.007 9.742-3.944 2.426-8.436 1.978-12.836 1.423-2.62-0.348-5.233-0.749-7.86-1.044l0.483-4.055c2.636 0.314 5.254 0.75 7.885 1.099 3.218 0.394 6.911 0.992 9.856-0.722 1.696-1.197 3.331-3.406 3.344-5.57 0.016-1.612-5.018-0.976-5.934-0.93-4.258 0.228-8.887 0.915-12.751-1.287-3.112-2.333-4.487-6.792-2.073-10.116 3.153-2.994 8.341-2.221 12.348-2.234 2.207-0.011 4.471 0.081 6.673-0.129v4.31h0.001z"/>
	<g id="g790" transform="matrix(1.166 0 0 1.0624 -26.21 -45.238)">
		<path id="path791" d="m7.758 710.52c2.191 0.243 4.459 0.147 6.658 0.16 4.147 0.016 8.293-0.018 12.442-0.036 0.831-0.005 1.663-0.012 2.493-0.039v3.442c-0.831-0.028-1.663-0.034-2.493-0.04-4.148-0.018-8.295-0.052-12.442-0.036-2.199 0.013-4.467-0.083-6.658 0.16v-3.6z"/>
		<path id="path792" d="m19.975 713.04c-0.17 1.325-0.085 2.721-0.093 4.051-0.012 2.653-0.013 5.307 0.007 7.962 0.013 1.758 0.029 3.516 0.034 5.273 0.001 1.052-0.003 2.104-0.005 3.156h-3.542c-0.002-1.052-0.005-2.104-0.003-3.156 0.003-1.758 0.02-3.516 0.033-5.273 0.019-2.655 0.019-5.308 0.008-7.962-0.01-1.33 0.077-2.726-0.094-4.051h3.655z"/>
	</g>
	<g id="g793">
		<path id="path794" d="m12.991 710.38c-0.233 1.819-0.121 3.735-0.143 5.564-0.049 4.597-0.055 9.195-0.009 13.793 0.019 1.505 0.041 3.011 0.07 4.516h-3.493c0.029-1.505 0.053-3.011 0.07-4.516 0.046-4.598 0.04-9.196-0.008-13.793-0.022-1.829 0.091-3.745-0.144-5.564h3.657z"/>
		<path id="path795" d="m10.804 709.28c1.504 0.167 3.054 0.079 4.565 0.121 3.229 0.147 6.067 1.089 6.49 4.705 0.098 3.621-1.89 5.792-5.406 6.463-1.649 0.208-3.262 0.145-4.911-0.031l0.377-3.377c1.302 0.146 2.583 0.213 3.887 0.054 1.712-0.315 2.579-0.938 2.565-2.747-0.132-1.637-1.703-1.587-3.088-1.653-1.475-0.03-3.009-0.086-4.479 0.078v-3.6z"/>
		<path id="path796" d="m12.244 718.96c1.304 0.145 2.657 0.077 3.967 0.087 2.814 0.022 5.97-0.196 8.307 1.637 1.977 2.09 1.296 4.663 0.556 7.142-0.503 1.677-0.932 3.325-0.986 5.084-0.003 0.344 0 0.684 0.009 1.026l-3.525 0.09c-0.011-0.409-0.014-0.816-0.01-1.225 0.066-2.06 0.562-3.992 1.154-5.955 0.269-0.9 1.017-2.566 0.519-3.509-1.19-1.353-4.451-0.867-6.022-0.854-1.31 0.011-2.663-0.057-3.967 0.087v-3.61h-0.002z"/>
		<rect id="rect797" height="3.227" width="2.51" y="709.29" x="9.365"/>
	</g>
	<path id="path798" d="m51.312 722.02c0 7.421-5.542 13.445-12.37 13.445s-12.368-6.024-12.368-13.445c0-7.422 5.54-13.445 12.368-13.445s12.37 6.02 12.37 13.44zm-3.945-0.34c0 5.055-3.775 9.158-8.426 9.158s-8.426-4.103-8.426-9.158c0-5.057 3.774-9.158 8.426-9.158 4.651 0 8.426 4.1 8.426 9.16z"/>
</g>
<path id="rect317" d="m455.44 104.56h11.311c5.057 0 9.156 4.1 9.156 9.156v65.621c0 5.057-4.1 9.156-9.156 9.156h-11.311c-5.057 0-9.156-4.099-9.156-9.156v-65.621c0-5.06 4.1-9.16 9.16-9.16z" fill="#60585A"/>
<path id="rect316" d="m124.64 107.85h11.311c5.058 0 9.156 4.1 9.156 9.156v65.621c0 5.057-4.099 9.156-9.156 9.156h-11.311c-5.057 0-9.156-4.099-9.156-9.156v-65.621c0-5.06 4.1-9.16 9.16-9.16z" fill="#60585A"/>
<radialGradient id="path184_1_" gradientUnits="userSpaceOnUse" cy="537.19" cx="669.61" gradientTransform="matrix(.7018 0 0 -1.197 -170.96 1041.4)" r="548.8">
	<stop style="stop-color:#1F1F1F" offset="0"/>
	<stop style="stop-color:#000000" offset="1"/>
</radialGradient>
<path id="path184" d="m296.9 835.09c-120.6 2.519-139.08-19.113-156.9-22.676-17.817-41.357-21.2-390.07-10.511-418.58 7.991-64.569-5.265-75.261-9.266-153.08-7.615-90.884 10.469-40.347-4.734-132.76 23.1-96.22-20.409-98.179 179.73-107.33 183.67 2.561 157.81 11.109 180.9 107.33-15.203 92.418 2.881 41.881-4.734 132.76-4.001 77.816-17.257 88.508-9.266 153.08 10.689 28.505 7.307 377.22-10.511 418.58-27.894 16.161-101.81 22.676-154.72 22.676h0.01z" stroke="#000000" fill="url(#path184_1_)"/>
<radialGradient id="path272_1_" gradientUnits="userSpaceOnUse" cy="694.12" cx="917.1" gradientTransform="matrix(.4169 0 0 -3.8752 -267.83 3112)" r="15.849">
	<stop style="stop-color:#FFFFFF" offset="0"/>
	<stop style="stop-color:#696969" offset="1"/>
</radialGradient>
<path id="path272" d="m150.58 300.64l22.967 87.928s0 164.87-3.28 167.61c-3.282 2.747-29.529 49.458-29.529 49.458s6.562-299.5 9.844-305z" fill="url(#path272_1_)"/>
<radialGradient id="path274_1_" gradientUnits="userSpaceOnUse" cy="694.12" cx="877.66" gradientTransform="matrix(-.4169 0 0 -3.8752 848.3 3106.7)" r="15.849">
	<stop style="stop-color:#FFFFFF" offset="0"/>
	<stop style="stop-color:#696969" offset="1"/>
</radialGradient>
<path id="path274" d="m446.33 295.31l-22.967 87.928s0 164.87 3.28 167.61c3.282 2.748 29.528 49.458 29.528 49.458s-6.561-299.5-9.843-305z" fill="url(#path274_1_)"/>
<path id="path230" d="m145.95 47.484c-12.443 19.909-11.536 209.28 8.373 224.21 19.23-15.839 130.63-30.552 151.81-29.185 21.638-1.591 106.33 8.591 132.35 24.208 7.015 2.272 21.04-219.23 1.13-234.16-62.22-17.426-268.78-17.426-293.66 14.927v0.007z" stroke="#000000" stroke-opacity=".4591" fill="#333333"/>
<radialGradient id="path275_1_" gradientUnits="userSpaceOnUse" cy="273.77" cx="299.68" gradientTransform="matrix(1.6042 0 0 -.7914 -183.78 533.92)" r="91.231">
	<stop style="stop-color:#FFFFFF" offset="0"/>
	<stop style="stop-color:#696969" offset="1"/>
</radialGradient>
<path id="path275" d="m150.82 274.52s69.892-28.687 147.87-29.42c70.214-0.684 101.92 10.263 144.64 26.684-5.177 52-10.354 101.26-23.297 117.68-119.07-30.108-126.83-30.108-245.9 0-2.592-16.414-25.889-112.21-23.3-114.94h-0.01z" fill="url(#path275_1_)"/>
<path id="path185" opacity=".62" d="m154.81 277.52s68.027-26.41 143.93-27.085c68.342-0.629 99.206 9.449 140.78 24.566-5.038 47.872-10.077 93.222-22.676 108.34-115.9-27.715-123.45-27.714-239.35 0.001-2.52-15.117-25.195-103.3-22.677-105.82v-0.01z" stroke="#000000" fill-opacity=".7044"/>
<radialGradient id="path270_1_" gradientUnits="userSpaceOnUse" cy="32.544" cx="396.34" gradientTransform="matrix(1.2471 0 0 -.8235 -193.39 702.97)" r="128.27">
	<stop style="stop-color:#FFFFFF" offset="0"/>
	<stop style="stop-color:#DADADA" offset=".2095"/>
	<stop style="stop-color:#9D9D9D" offset=".5821"/>
	<stop style="stop-color:#777777" offset=".8562"/>
	<stop style="stop-color:#696969" offset="1"/>
</radialGradient>
<path id="path270" d="m187.01 566.8c-13.192 63.318-23.744 184.68-23.744 184.68 21.106 18.469 129.28 26.384 131.92 26.384 7.915 0 116.08-7.915 134.56-34.298 0-15.83-10.554-129.28-21.107-179.4-92.34 13.19-216.34 7.915-221.62 2.638h-0.01z" fill="url(#path270_1_)"/>
<path id="path188" opacity=".62" d="m192.61 572.3c-12.599 60.468-22.676 176.36-22.676 176.36 20.156 17.637 123.45 25.195 125.98 25.195 7.559 0 110.86-7.559 128.5-32.754 0-15.117-10.079-123.45-20.156-171.33-88.184 12.597-206.6 7.559-211.65 2.52z" stroke="#000000" fill-opacity=".7862"/>
<path id="path189" d="m449.6 297.66l30.234 2.52s15.118 15.117 5.04 22.676c-10.079 7.559-35.274-2.519-35.274-2.519v-22.68z" stroke="#000000" stroke-opacity=".4591" fill="#333333"/>
<path id="path190" d="m145.68 302.71l-30.235 2.519s-15.117 15.118-5.039 22.676c10.079 7.559 35.274-2.52 35.274-2.52v-22.68z" stroke="#000000" stroke-opacity=".4591" fill="#333333"/>
<path id="path304" d="m162.36 18.158c-9.623 1.677-20.605 20.262-15.555 23.359 12.032-6.068 35.545-14.405 58.644-16.728 4.571-2.453 10.813-9.979 11.047-11.657-15.87-0.902-43.64 2.961-54.13 5.026z" stroke-opacity=".2516" stroke="#000000" stroke-width="1.082" fill="#F7FFD7"/>
<path id="path306" d="m424.85 12.921c9.623 1.678 20.605 15.606 15.554 18.704-12.03-6.067-35.544-8.004-58.643-10.328-4.57-2.453-10.809-11.723-11.05-13.401 15.88-0.904 43.65 2.96 54.14 5.025z" stroke-opacity=".2516" stroke="#000000" stroke-width="1.082" fill="#F7FFD7"/>
<path id="path307" d="m226.04 11.071c39.566-6.983 106.48-6.401 134.99-2.911" stroke="#000000" stroke-opacity=".3711" fill="none"/>
<path id="path308" d="m226.04 13.98c39.566-6.983 106.48-6.401 134.99-2.911" stroke="#000000" stroke-opacity=".3711" fill="none"/>
<path id="path309" d="m226.04 17.471c39.566-6.983 106.48-6.401 134.99-2.911" stroke="#000000" stroke-opacity=".3711" fill="none"/>
<path id="path310" d="m226.04 21.544c39.566-6.4 104.73-5.238 132.67-3.493" stroke="#000000" stroke-opacity=".3711" fill="none"/>
<path id="path186" opacity=".62" d="m152.29 315.3l17.637 80.625s0 151.17-2.52 153.69c-2.521 2.519-22.676 45.351-22.676 45.351s5.038-274.62 7.559-279.67v0.01z" stroke="#000000" fill-opacity=".6855"/>
<path id="path211" d="m145.04 331.2c-2.488 27.375-15.989 472.96 4.977 472.84 74.504 28.229 236.37 25.153 297.05-7.466 18.697-0.076 7.465-445.48 4.977-472.84" stroke="#000000" fill="none"/>
<path id="path187" opacity=".62" d="m444.56 310.27l-17.636 80.625s0 151.17 2.519 153.69c2.521 2.519 22.676 45.351 22.676 45.351s-5.038-274.62-7.559-279.67z" stroke="#000000" fill-opacity=".7484"/>
<metadata><rdf:RDF><cc:Work><dc:format>image/svg+xml</dc:format><dc:type rdf:resource="http://purl.org/dc/dcmitype/StillImage"/><cc:license rdf:resource="http://creativecommons.org/licenses/publicdomain/"/><dc:publisher><cc:Agent rdf:about="http://openclipart.org/"><dc:title>Openclipart</dc:title></cc:Agent></dc:publisher></cc:Work><cc:License rdf:about="http://creativecommons.org/licenses/publicdomain/"><cc:permits rdf:resource="http://creativecommons.org/ns#Reproduction"/><cc:permits rdf:resource="http://creativecommons.org/ns#Distribution"/><cc:permits rdf:resource="http://creativecommons.org/ns#DerivativeWorks"/></cc:License></rdf:RDF></metadata></svg>