<?xml version="1.0" encoding="UTF-8" standalone="no"?>
<!-- Created with Inkscape (http://www.inkscape.org/) -->

<svg
   width="64"
   height="64"
   viewBox="0 0 16.933333 16.933333"
   version="1.1"
   id="svg5"
   inkscape:version="1.2.2 (b0a8486541, 2022-12-01)"
   sodipodi:docname="calendarView.svg"
   xmlns:inkscape="http://www.inkscape.org/namespaces/inkscape"
   xmlns:sodipodi="http://sodipodi.sourceforge.net/DTD/sodipodi-0.dtd"
   xmlns="http://www.w3.org/2000/svg"
   xmlns:svg="http://www.w3.org/2000/svg">
  <sodipodi:namedview
     id="namedview7"
     pagecolor="#333333"
     bordercolor="#000000"
     borderopacity="0.25"
     inkscape:showpageshadow="2"
     inkscape:pageopacity="0"
     inkscape:pagecheckerboard="0"
     inkscape:deskcolor="#d2d1d1"
     inkscape:document-units="mm"
     showgrid="false"
     inkscape:zoom="8.0797436"
     inkscape:cx="26.424106"
     inkscape:cy="8.539875"
     inkscape:window-width="1280"
     inkscape:window-height="1365"
     inkscape:window-x="0"
     inkscape:window-y="0"
     inkscape:window-maximized="0"
     inkscape:current-layer="layer1" />
  <defs
     id="defs2" />
  <g
     inkscape:label="Layer 1"
     inkscape:groupmode="layer"
     id="layer1">
    <path
       id="rect234"
       style="fill:#ffffff;stroke-width:0.769669;paint-order:stroke markers fill"
       d="M 3.6524902 2.7590047 L 3.6524902 3.6721273 C 3.6524902 3.6715138 3.6522096 3.6752661 3.6581746 3.6829793 C 3.6611571 3.686836 3.6657253 3.6919155 3.672644 3.6979655 C 3.6795628 3.7040155 3.6890979 3.7108351 3.7015828 3.7191528 C 3.7140681 3.7274706 3.7286795 3.7356556 3.7460246 3.7434408 C 3.7633697 3.7512259 3.783037 3.7589236 3.8044189 3.7651449 C 3.8258009 3.7713662 3.8490695 3.7765048 3.8736654 3.780131 C 3.8859633 3.7819442 3.8984421 3.7832941 3.9113892 3.7842651 C 3.9243362 3.7852362 3.9376867 3.7858154 3.95118 3.7858154 C 3.9646735 3.7858154 3.9780237 3.7852362 3.9909709 3.7842651 C 4.003918 3.7832941 4.0163967 3.7819442 4.0286947 3.780131 C 4.0532906 3.7765048 4.0765591 3.7713662 4.0979411 3.7651449 C 4.1193231 3.7589236 4.1389905 3.7512259 4.1563354 3.7434408 C 4.1736804 3.7356556 4.188809 3.7274706 4.2012939 3.7191528 C 4.2137764 3.7108351 4.2233145 3.7040157 4.2302327 3.6979655 C 4.237151 3.6919153 4.241719 3.6868361 4.2447021 3.6829793 C 4.2506684 3.6752657 4.2503866 3.6715123 4.2503866 3.6721273 L 4.2503866 2.7590047 L 3.6524902 2.7590047 z " />
    <path
       id="path1999"
       style="fill:#ffffff;stroke-width:0.769669;paint-order:stroke markers fill"
       d="M 1.6588135 2.7590047 C 1.325286 2.7590047 1.056783 3.0275076 1.056783 3.3610352 L 1.056783 14.591357 C 1.056783 14.924885 1.325286 15.193388 1.6588135 15.193388 L 15.274003 15.193388 C 15.607531 15.193388 15.87655 14.924885 15.87655 14.591357 L 15.87655 3.3610352 C 15.87655 3.0275076 15.607531 2.7590047 15.274003 2.7590047 L 13.935067 2.7590047 L 13.935067 3.6721273 C 13.935067 3.878602 13.809171 4.0484421 13.658081 4.1491007 C 13.50699 4.2497594 13.32078 4.3010295 13.120646 4.3010295 C 12.920512 4.3010295 12.734819 4.2497593 12.583728 4.1491007 C 12.432637 4.0484421 12.306226 3.878602 12.306226 3.6721273 L 12.306226 2.7590047 L 4.9040934 2.7590047 L 4.9040934 3.6721273 C 4.9040934 3.6850323 4.9045348 3.6982776 4.9035767 3.7108846 C 4.9026151 3.7234926 4.9007958 3.7357966 4.8989258 3.7480916 C 4.8970558 3.7603866 4.8949478 3.7722991 4.8922078 3.7842651 C 4.8894678 3.7962321 4.8864561 3.8082989 4.8829061 3.8199219 C 4.8758061 3.8431679 4.8671209 3.865839 4.8570679 3.887618 C 4.8470139 3.909397 4.8355744 3.9299595 4.8229614 3.9501465 C 4.8103494 3.9703335 4.7963953 3.9900699 4.7816203 4.0085409 C 4.7668453 4.0270127 4.7511367 4.0446178 4.7345947 4.0612508 C 4.7180527 4.0778838 4.7008303 4.0936064 4.6829183 4.1082764 C 4.6650063 4.1229454 4.6465105 4.1365189 4.6276245 4.1491007 C 4.6087385 4.1616827 4.5891631 4.1731937 4.5692301 4.1842407 C 4.5492963 4.1952877 4.5286362 4.2057466 4.5077352 4.2152466 C 4.4868352 4.2247466 4.4654434 4.2336586 4.4436564 4.2416016 C 4.4218694 4.2495416 4.4001046 4.2564129 4.3775106 4.2627889 C 4.3549166 4.2691689 4.331583 4.2750441 4.3082642 4.2798421 C 4.2849442 4.2846421 4.2614334 4.2885217 4.2374674 4.2917277 C 4.2135016 4.2949377 4.1891357 4.2973524 4.1646037 4.2989624 C 4.1400727 4.3005724 4.1152066 4.3010295 4.0901896 4.3010295 C 4.0651726 4.3010295 4.0403064 4.3005752 4.0157756 4.2989624 C 3.9912446 4.2973524 3.9673945 4.2949277 3.9434285 4.2917277 C 3.9194627 4.2885177 3.8954339 4.2846381 3.8721151 4.2798421 C 3.8487951 4.2750421 3.8259794 4.2691649 3.8033854 4.2627889 C 3.7807914 4.2564089 3.7585098 4.2495446 3.7367228 4.2416016 C 3.7149358 4.2336616 3.693545 4.2247466 3.672644 4.2152466 C 3.6517442 4.2057466 3.6315987 4.1952877 3.6116659 4.1842407 C 3.5917319 4.1731937 3.5721575 4.1616827 3.5532715 4.1491007 C 3.5343855 4.1365189 3.5158897 4.1229454 3.4979777 4.1082764 C 3.4800657 4.0936064 3.4628423 4.0778838 3.4463013 4.0612508 C 3.4297593 4.0446178 3.4140517 4.0270127 3.3992757 4.0085409 C 3.3845007 3.9900689 3.3705466 3.9703335 3.3579346 3.9501465 C 3.3453226 3.9299595 3.3338821 3.909396 3.3238281 3.887618 C 3.3137751 3.865839 3.3050879 3.8431679 3.2979899 3.8199219 C 3.2944399 3.8082989 3.291418 3.7962321 3.2886882 3.7842651 C 3.2859482 3.7722981 3.2833233 3.7603856 3.2814535 3.7480916 C 3.2795835 3.7357966 3.2782793 3.7234926 3.2773193 3.7108846 C 3.2763577 3.6982766 3.275769 3.6850313 3.275769 3.6721273 L 3.2752523 2.7590047 L 1.6588135 2.7590047 z M 12.821956 2.7590047 L 12.821956 3.6721273 C 12.821956 3.6709003 12.820592 3.6858819 12.870532 3.7191528 C 12.920473 3.7524238 13.012699 3.7858154 13.120646 3.7858154 C 13.228594 3.7858154 13.32082 3.7524238 13.37076 3.7191528 C 13.42069 3.6858819 13.419336 3.6708973 13.419336 3.6721273 L 13.419336 2.7590047 L 12.821956 2.7590047 z M 2.8716593 4.9123617 L 7.2719076 4.9123617 C 7.8573186 4.9123617 8.334375 5.3894181 8.334375 5.9748291 L 8.334375 8.4744181 C 8.334375 9.059829 7.8573186 9.5368856 7.2719076 9.5368856 L 2.8716593 9.5368856 C 2.2862483 9.5368856 1.8091919 9.059829 1.8091919 8.4744181 L 1.8091919 5.9748291 C 1.8091919 5.3894181 2.2862483 4.9123617 2.8716593 4.9123617 z M 9.660909 4.9123617 L 14.061157 4.9123617 C 14.646568 4.9123617 15.123625 5.3894181 15.123625 5.9748291 L 15.123625 8.4744181 C 15.123625 9.059829 14.646568 9.5368856 14.061157 9.5368856 L 9.660909 9.5368856 C 9.0754979 9.5368856 8.5984416 9.059829 8.5984416 8.4744181 L 8.5984416 5.9748291 C 8.5984416 5.3894181 9.0754979 4.9123617 9.660909 4.9123617 z M 2.8716593 5.2771973 C 2.4821446 5.2771974 2.1745443 5.5853144 2.1745443 5.9748291 L 2.1745443 8.4744181 C 2.1745443 8.8639328 2.4821446 9.17205 2.8716593 9.17205 L 7.2719076 9.17205 C 7.6614223 9.17205 7.9695394 8.8639328 7.9695394 8.4744181 L 7.9695394 5.9748291 C 7.9695395 5.5853144 7.6614223 5.2771973 7.2719076 5.2771973 L 2.8716593 5.2771973 z M 9.660909 5.2771973 C 9.2713943 5.2771973 8.9632772 5.5853144 8.9632772 5.9748291 L 8.9632772 8.4744181 C 8.9632772 8.8639328 9.2713943 9.17205 9.660909 9.17205 L 14.061157 9.17205 C 14.450673 9.17205 14.758272 8.8639328 14.758272 8.4744181 L 14.758272 5.9748291 C 14.758272 5.5853144 14.450673 5.2771973 14.061157 5.2771973 L 9.660909 5.2771973 z M 2.8716593 9.8025024 L 7.2719076 9.8025024 C 7.8573186 9.8025024 8.334375 10.278007 8.334375 10.86342 L 8.334375 13.365076 C 8.334375 13.950486 7.8573186 14.427543 7.2719076 14.427543 L 2.8716593 14.427543 C 2.2862483 14.427543 1.8091919 13.950486 1.8091919 13.365076 L 1.8091919 10.86342 C 1.8091919 10.278007 2.2862483 9.8025024 2.8716593 9.8025024 z M 9.660909 9.8025024 L 14.061157 9.8025024 C 14.646568 9.8025024 15.123625 10.278007 15.123625 10.86342 L 15.123625 13.365076 C 15.123625 13.950486 14.646568 14.427543 14.061157 14.427543 L 9.660909 14.427543 C 9.0754979 14.427543 8.5984416 13.950486 8.5984416 13.365076 L 8.5984416 10.86342 C 8.5984416 10.278007 9.0754979 9.8025024 9.660909 9.8025024 z M 2.8716593 10.165788 C 2.4821446 10.165788 2.1745443 10.473904 2.1745443 10.86342 L 2.1745443 13.365076 C 2.1745443 13.754589 2.4821446 14.062708 2.8716593 14.062708 L 7.2719076 14.062708 C 7.6614223 14.062708 7.9695394 13.754589 7.9695394 13.365076 L 7.9695394 10.86342 C 7.9695394 10.473904 7.6614223 10.165788 7.2719076 10.165788 L 2.8716593 10.165788 z M 9.660909 10.165788 C 9.2713943 10.165788 8.9632772 10.473904 8.9632772 10.86342 L 8.9632772 13.365076 C 8.9632772 13.754589 9.2713943 14.062708 9.660909 14.062708 L 14.061157 14.062708 C 14.450673 14.062708 14.758272 13.754589 14.758272 13.365076 L 14.758272 10.86342 C 14.758272 10.473904 14.450673 10.165788 14.061157 10.165788 L 9.660909 10.165788 z " />
    <path
       style="color:#000000;fill:#ffffff;stroke-width:0.515645;-inkscape-stroke:none;paint-order:stroke markers fill"
       d="m 13.120633,1.2297301 c 0.308082,0 0.556104,0.165236 0.556104,0.3704843 v 2.0722618 c 0,0.2052484 -0.248022,0.3704844 -0.556104,0.3704844 -0.308081,0 -0.556103,-0.165236 -0.556103,-0.3704844 V 1.6002144 c 0,-0.2052483 0.248022,-0.3704843 0.556103,-0.3704843 z"
       id="path1283" />
    <g
       id="rect1855-5-3"
       transform="translate(-8.9001582,0.32081801)">
      <path
         style="color:#000000;fill:#ffffff;stroke-width:0.515645;-inkscape-stroke:none;paint-order:stroke markers fill"
         d="m 12.990108,0.90891206 c 0.308082,0 0.556104,0.16523604 0.556104,0.37048434 v 2.0722618 c 0,0.2052484 -0.248022,0.3704844 -0.556104,0.3704844 -0.308081,0 -0.556103,-0.165236 -0.556103,-0.3704844 V 1.2793964 c 0,-0.2052483 0.248022,-0.37048434 0.556103,-0.37048434 z"
         id="path1889-6" />
    </g>
  </g>
</svg>
