<?xml version="1.0" encoding="UTF-8" standalone="no"?>
<!-- Created with Inkscape (http://www.inkscape.org/) -->

<svg
   width="256mm"
   height="256mm"
   viewBox="0 0 256 256"
   version="1.1"
   id="svg5"
   inkscape:version="1.2.2 (b0a8486541, 2022-12-01)"
   sodipodi:docname="mapView.svg"
   xmlns:inkscape="http://www.inkscape.org/namespaces/inkscape"
   xmlns:sodipodi="http://sodipodi.sourceforge.net/DTD/sodipodi-0.dtd"
   xmlns="http://www.w3.org/2000/svg"
   xmlns:svg="http://www.w3.org/2000/svg">
  <sodipodi:namedview
     id="namedview7"
     pagecolor="#393939"
     bordercolor="#000000"
     borderopacity="0.25"
     inkscape:showpageshadow="2"
     inkscape:pageopacity="0"
     inkscape:pagecheckerboard="0"
     inkscape:deskcolor="#d1d1d1"
     inkscape:document-units="mm"
     showgrid="false"
     inkscape:zoom="0.74308159"
     inkscape:cx="580.68994"
     inkscape:cy="485.81476"
     inkscape:window-width="1920"
     inkscape:window-height="1005"
     inkscape:window-x="0"
     inkscape:window-y="0"
     inkscape:window-maximized="1"
     inkscape:current-layer="layer1" />
  <defs
     id="defs2" />
  <g
     inkscape:label="Layer 1"
     inkscape:groupmode="layer"
     id="layer1">
    <path
       id="path2558"
       style="fill:#ffffff;fill-opacity:1;stroke-width:1.14171;paint-order:stroke markers fill"
       d="M 128.00001,14.057869 A 76.250417,76.250417 0 0 0 51.749585,90.308286 76.250417,76.250417 0 0 0 63.425915,130.75857 L 128.0421,241.94213 193.69093,128.98138 A 76.250417,76.250417 0 0 0 204.25042,90.308286 76.250417,76.250417 0 0 0 128.00001,14.057869 Z m 0,43.423516 a 32.82687,32.82687 0 0 1 32.8269,32.826901 32.82687,32.82687 0 0 1 -32.8269,32.826904 A 32.82687,32.82687 0 0 1 95.173096,90.308286 32.82687,32.82687 0 0 1 128.00001,57.481385 Z" />
  </g>
</svg>
